PathFileType	4	(X/Y/Z)	C:/Users/opensim2020/Desktop/walking_exp_matlab/subject01_walking11_straight_04.trc	
DataRate	CameraRate	NumFrames	NumMarkers	Units	OrigDataRate	OrigDataStartFrame	OrigNumFrames	
100.00	100.00	5	44	mm	100.00	3939	278	
Frame#	Time	LFHD			RFHD			LBHD			RBHD			C7			T10			CLAV			STRN			RBAK			LSHO			LUPA			LELB			LFRM			LWRA			LWRB			LFIN			RSHO			RUPA			RELB			RFRM			RWRA			RWRB			RFIN			LASI			RASI			LPSI			RPSI			LTHI			LKNE			LTIB			LANK			LHEE			LTOE			RTHI			RKNE			RTIB			RANK			RHEE			RTOE			*39			*40			*41			*42			*43			
		X1	Y1	Z1	X2	Y2	Z2	X3	Y3	Z3	X4	Y4	Z4	X5	Y5	Z5	X6	Y6	Z6	X7	Y7	Z7	X8	Y8	Z8	X9	Y9	Z9	X10	Y10	Z10	X11	Y11	Z11	X12	Y12	Z12	X13	Y13	Z13	X14	Y14	Z14	X15	Y15	Z15	X16	Y16	Z16	X17	Y17	Z17	X18	Y18	Z18	X19	Y19	Z19	X20	Y20	Z20	X21	Y21	Z21	X22	Y22	Z22	X23	Y23	Z23	X24	Y24	Z24	X25	Y25	Z25	X26	Y26	Z26	X27	Y27	Z27	X28	Y28	Z28	X29	Y29	Z29	X30	Y30	Z30	X31	Y31	Z31	X32	Y32	Z32	X33	Y33	Z33	X34	Y34	Z34	X35	Y35	Z35	X36	Y36	Z36	X37	Y37	Z37	X38	Y38	Z38	X39	Y39	Z39	X40	Y40	Z40	X41	Y41	Z41	X42	Y42	Z42	X43	Y43	Z43	X44	Y44	Z44	

70	0.690	-966.67822	512.72144	1669.07251	-1077.96484	483.89697	1676.43921	-992.07434	628.96191	1632.70337	-1110.02905	602.40063	1640.11768	-1023.53363	669.34827	1434.68481	-1037.77441	705.14703	1141.47070	-1036.95288	526.16431	1366.86292	-1039.66272	482.81503	1212.30762	-1098.79822	732.05713	1240.40430	-870.62286	572.87634	1397.63513	-786.90967	597.21906	1211.93872	-787.16052	611.17694	1060.51965	-768.43683	563.14124	955.35913	-794.03174	476.18039	848.51447	-767.41113	528.98029	837.80786	-760.55231	473.85681	773.71246	-1179.49792	606.97864	1397.32153	-1281.21558	668.84705	1200.03735	-1290.54907	661.41217	1075.42578	-1327.60608	625.56952	961.94324	-1318.85571	533.58655	852.96814	-1354.92102	579.79645	850.87268	-1357.38074	535.93024	775.96069	-947.88989	527.40210	937.30737	-1164.71179	544.45856	933.82935	-986.43073	717.14526	947.09912	-1131.56616	725.94727	944.08173	-896.66565	525.88800	607.02875	-919.21539	522.82837	472.91962	-912.18677	570.25977	287.62271	-971.27307	600.33936	73.67863	-1023.42493	645.85187	44.69151	-970.18896	452.07703	36.89479	-1231.12366	548.29364	602.41833	-1218.75964	524.66351	446.74042	-1213.54358	671.75836	350.71796	-1163.68115	821.32721	212.53969	-1105.72192	876.69012	214.49609	-1179.14429	762.20715	83.23901	-1055.69421	496.29233	1710.47937	-3102.04932	1973.19946	1023.53845	-3140.71509	2012.58069	1022.17017						 
71	0.700	-965.95129	505.46008	1669.25720	-1077.37500	476.60574	1676.35205	-991.27692	621.79669	1633.30212	-1109.32935	595.27832	1640.39685	-1022.43762	662.85352	1435.02905	-1036.61438	698.75800	1141.81873	-1035.92212	519.58728	1367.23975	-1038.34326	476.43954	1212.51526	-1097.55847	725.65466	1240.71924	-869.59460	566.32782	1397.99292	-785.57196	589.45520	1212.26880	-785.90564	601.62091	1060.74414	-766.78223	553.12067	956.12708	-792.73242	465.29596	850.08838	-765.76758	517.77606	838.95105	-759.08301	461.93799	775.43500	-1178.45374	600.64703	1397.50879	-1279.73462	663.00269	1200.19336	-1288.76575	656.02649	1075.58801	-1325.90027	621.28210	961.92688	-1317.31750	530.16467	852.02142	-1352.92163	576.42188	850.23035	-1355.48962	533.30756	774.88818	-946.28162	521.33521	937.46539	-1163.15686	537.73004	934.76837	-985.69293	710.98090	947.28119	-1130.93616	719.08966	944.85718	-896.19110	522.06738	606.58148	-918.63684	519.76697	472.39838	-911.96356	568.52753	287.42496	-971.27057	600.04388	73.60767	-1023.65405	645.52234	44.65553	-970.18079	452.06607	36.83758	-1230.18250	537.63812	603.97559	-1217.37097	512.02869	448.56757	-1212.04260	657.75977	351.28409	-1162.42737	805.46851	210.67873	-1104.59790	861.07672	211.26672	-1177.66821	742.37427	83.29887	-1055.19507	488.87445	1710.43542	-3101.89844	1973.13354	1023.37811	-3140.72729	2012.59009	1022.09564						 
72	0.710	-965.38660	498.07922	1669.43896	-1076.77112	469.35730	1676.21619	-990.59326	614.67914	1633.91577	-1108.62268	588.18768	1640.66235	-1021.36981	656.36023	1435.34729	-1035.48364	692.32245	1142.10278	-1034.65576	513.40808	1367.37622	-1037.06470	470.08603	1212.73450	-1096.39709	719.28143	1241.06409	-868.51965	559.93872	1398.34570	-784.32733	582.06958	1212.77075	-784.47369	592.53717	1061.00720	-765.21857	543.03870	956.94940	-791.50153	454.35184	851.76196	-764.32373	506.64148	840.11816	-757.63702	450.09317	777.22388	-1177.35657	594.32660	1397.76135	-1278.38647	657.33313	1200.37158	-1287.01160	650.68384	1075.77161	-1323.92798	617.01709	961.76996	-1315.73157	526.71198	851.16168	-1351.10889	573.16010	849.74384	-1353.51550	530.75085	773.88422	-944.85028	515.99725	937.43555	-1161.40833	531.09338	935.63641	-984.95746	704.77917	947.54291	-1130.35437	712.35217	945.61163	-895.78125	518.49658	606.19751	-918.15161	516.95233	471.85147	-911.76093	567.18939	287.25381	-971.38751	599.54974	73.51513	-1023.53186	645.61353	45.06431	-970.22205	451.93497	36.76255	-1229.34790	527.32654	605.68512	-1216.18408	499.78107	450.77908	-1210.79980	643.85657	351.37744	-1161.12598	789.27869	207.95691	-1103.31506	845.00690	207.00545	-1176.43274	722.37012	82.67783	-1054.60730	481.49780	1710.24353	-3101.98828	1973.09741	1023.48547	-3140.71191	2012.55786	1022.04431						 
73	0.720	-964.85730	490.89932	1669.66589	-1076.26904	462.15872	1676.08691	-989.93054	607.62427	1634.49255	-1107.95923	581.12109	1640.92407	-1020.35413	649.95721	1435.66016	-1034.44690	685.94299	1142.45020	-1033.65503	506.97549	1367.65698	-1035.79089	463.77615	1213.00647	-1095.26038	712.85205	1241.33850	-867.53564	553.55634	1398.70349	-783.00598	574.54138	1213.19666	-782.55664	583.92169	1061.47729	-763.78577	533.29034	957.82318	-790.20630	443.48535	853.45013	-762.84210	495.56311	841.30005	-756.25293	438.42865	779.05475	-1176.32764	587.96082	1398.01489	-1277.05945	651.67395	1200.59180	-1285.33911	645.42407	1075.94495	-1322.38733	612.71301	961.74921	-1314.25842	523.21808	850.44006	-1349.62463	569.91077	849.32892	-1352.01392	527.99548	773.11957	-943.29395	509.77521	937.55261	-1159.70386	524.47992	936.48291	-984.31122	698.64813	947.81793	-1129.84351	705.70752	946.29828	-895.21704	514.64087	605.72559	-917.60101	514.35144	471.37570	-911.52008	566.11597	287.14505	-971.79877	599.10010	73.54487	-1023.61536	645.55060	45.25254	-970.25836	451.81619	36.66161	-1228.50928	516.87817	607.21912	-1215.22498	487.42078	452.85974	-1209.73950	629.77283	350.76495	-1159.76111	772.53510	204.42702	-1101.97961	828.38721	201.63559	-1175.46008	701.30273	82.09576	-1054.14990	474.13928	1710.23499	-3101.98193	1973.10876	1023.32318	-3140.71899	2012.56433	1022.16467						 
74	0.730	-964.36572	483.77475	1669.87146	-1075.77136	455.06970	1676.01440	-989.25006	600.60083	1635.03101	-1107.34900	574.16223	1641.17554	-1019.26776	643.52405	1435.96533	-1033.31604	679.54126	1142.75525	-1032.66589	500.56766	1367.92285	-1034.59119	457.39584	1213.20862	-1094.18787	706.51068	1241.65125	-866.54150	547.12524	1399.05786	-781.71851	566.82593	1213.46350	-781.29663	575.28546	1061.71130	-762.35168	523.43903	958.71838	-788.83228	432.69135	855.19849	-761.40570	484.60199	842.52594	-754.90979	426.75684	780.76788	-1175.40527	581.58569	1398.17542	-1275.68506	646.08490	1200.77100	-1283.75928	640.18237	1076.12622	-1320.62805	608.43817	961.60272	-1312.77356	519.66638	849.72552	-1347.82227	566.41852	848.89484	-1350.28467	525.12134	772.25885	-941.83832	503.63846	937.63422	-1158.06873	517.88031	937.20941	-983.61639	692.44086	948.03809	-1129.31653	699.06073	946.90851	-894.65271	510.90067	605.28204	-917.04871	511.95886	470.80945	-911.23828	565.24530	287.08929	-971.65375	599.38464	73.69050	-1023.68256	645.49670	45.46929	-970.27490	451.62509	36.54741	-1227.85510	506.69360	608.82886	-1214.10242	475.23621	454.62241	-1208.63391	615.60394	349.42752	-1158.28967	755.08917	199.94693	-1100.46643	811.26630	195.21153	-1174.79858	679.69781	80.51792	-1053.89197	466.80972	1710.40308	-3101.91235	1973.14478	1023.42841	-3140.69580	2012.55664	1022.12665						 
